<svg width="140" height="140" viewBox="0 0 140 140" xmlns="http://www.w3.org/2000/svg">
  <defs>
    <linearGradient id="bg" x1="0" y1="0" x2="1" y2="1">
      <stop offset="0%" stop-color="#DDF3FF"/>
      <stop offset="100%" stop-color="#84C9FF"/>
    </linearGradient>
    <linearGradient id="pin" x1="0" y1="0" x2="1" y2="1">
      <stop offset="0%" stop-color="#278DFF"/>
      <stop offset="100%" stop-color="#12B6C8"/>
    </linearGradient>
  </defs>

  <rect x="8" y="8" width="124" height="124" rx="30" fill="url(#bg)"/>

  <rect x="33" y="86" width="74" height="17" rx="8.5" fill="#FFFFFF" opacity="0.96"/>
  <rect x="40" y="91" width="9" height="7" rx="2" fill="#2C7CFF"/>
  <rect x="54" y="91" width="9" height="7" rx="2" fill="#2C7CFF"/>
  <rect x="68" y="91" width="9" height="7" rx="2" fill="#2C7CFF"/>
  <rect x="82" y="91" width="9" height="7" rx="2" fill="#2C7CFF"/>
  <rect x="96" y="91" width="4" height="7" rx="2" fill="#2C7CFF"/>

  <path d="M70 27C56.1 27 44.5 38.1 44.5 52.1C44.5 69.7 63.6 82.4 68.2 85.2C69.3 85.9 70.7 85.9 71.8 85.2C76.4 82.4 95.5 69.7 95.5 52.1C95.5 38.1 83.9 27 70 27Z" fill="url(#pin)"/>
  <circle cx="70" cy="52" r="13" fill="#FFFFFF"/>
  <path d="M70 41L73.1 47.3L80 48.3L75 53.1L76.2 60L70 56.7L63.8 60L65 53.1L60 48.3L66.9 47.3L70 41Z" fill="#2C7CFF"/>

  <path d="M44 72C51 64.5 59.8 61 70 61C80.2 61 89 64.5 96 72" fill="none" stroke="#FFFFFF" stroke-opacity="0.75" stroke-width="4" stroke-linecap="round"/>
</svg>
